<?xml version="1.0" encoding="utf-8"?>
<svg version="1.1" id="Layer_1" xmlns="http://www.w3.org/2000/svg" x="0px" y="0px" width="100%" viewBox="-435.766 -332.411 2153.992 1760.643" enable-background="new 0 0 1305 1089">
  <path fill="#EBECEC" opacity="1.000000" stroke="none" d=" M31.966469,589.105835 C31.977554,564.634277 32.204208,540.160339 31.940456,515.691711 C31.664377,490.079651 37.481113,465.794250 46.918579,442.222046 C57.368408,416.121185 72.366287,392.813873 90.826355,371.704742 C97.477333,364.099365 104.448097,356.773621 111.623161,349.615356 C112.016228,408.856201 111.857971,467.803467 112.305511,526.746155 C112.377701,536.253967 114.332603,545.960327 116.817062,555.198425 C125.395271,587.095337 143.184280,613.673950 166.034943,637.057617 C181.183060,652.559082 197.658783,666.505493 216.132141,678.476746 C217.948212,679.870178 219.606537,680.976746 221.274109,682.069214 C266.222809,711.517395 315.166565,732.214417 366.347076,747.873779 C380.568634,752.225037 395.105255,755.546753 409.780823,759.608887 C410.621002,760.215088 411.139313,760.741882 411.739960,760.864075 C429.244995,764.426636 446.726471,768.117737 464.280731,771.421631 C477.305939,773.873047 490.384277,776.135681 503.517975,777.891296 C516.777283,779.663757 530.122375,780.835205 543.450928,782.037964 C559.500488,783.486389 575.557800,784.923950 591.639465,785.916992 C602.177979,786.567688 612.767151,786.650146 623.331116,786.584106 C642.906189,786.461731 662.479431,786.044189 682.507568,785.823120 C692.503540,785.289368 702.061096,784.863342 711.583801,784.035400 C729.311035,782.494202 747.074463,781.164185 764.718445,778.924377 C785.161072,776.329102 805.606262,773.454285 825.843689,769.612183 C857.236084,763.652283 888.183044,755.855103 918.726624,746.249207 C960.093079,733.239685 999.922485,716.890503 1037.494751,695.216675 C1073.488037,674.453674 1106.213623,649.681824 1131.960327,616.596924 C1155.903198,585.830139 1168.904175,551.462646 1168.150635,511.906647 C1167.404907,472.768951 1167.969238,433.605957 1167.993164,394.454071 C1168.002441,379.296997 1168.105469,364.140015 1168.165771,348.982971 C1188.397339,368.159821 1205.531982,389.765045 1219.492554,413.918335 C1230.369385,432.736084 1238.899414,452.537109 1243.256592,473.820862 C1245.732666,485.916504 1247.467773,498.340607 1247.793945,510.662933 C1248.477417,536.477661 1248.008301,562.322815 1248.007568,589.092407 C1247.904419,613.657593 1247.806274,637.285828 1247.347168,661.026245 C1246.610352,663.038635 1246.170898,664.928894 1245.868042,666.840759 C1240.263306,702.227295 1226.947876,734.585449 1207.336548,764.420410 C1189.308960,791.846130 1167.389160,815.777710 1142.543091,837.218811 C1110.094116,865.220947 1074.318481,888.044922 1036.243164,907.472839 C1010.717773,920.497131 984.399231,931.639954 957.476746,941.436523 C918.218994,955.721558 878.073303,966.795227 837.138123,975.002014 C805.260071,981.393005 773.192322,986.621033 740.742493,989.146423 C719.236023,990.820129 697.739441,993.228638 676.201477,993.734375 C649.252991,994.367126 622.259277,993.673035 595.299316,992.990906 C579.711487,992.596436 564.087952,991.675232 548.593567,989.966003 C522.735168,987.113647 496.891693,983.934021 471.178925,979.997437 C430.590973,973.783508 390.813660,963.911194 351.710968,951.384460 C303.398651,935.907471 256.908539,916.273621 213.029953,890.634521 C178.559631,870.492798 146.411804,847.231445 117.982613,819.162292 C107.479889,808.792603 97.761253,797.521606 88.548126,785.973145 C60.911961,751.331909 41.769672,712.678894 34.809795,668.501160 C34.298252,665.254150 33.133453,662.110046 32.222054,658.457092 C32.103325,635.032654 32.034897,612.069275 31.966469,589.105835 M629.504211,883.997009 C651.753052,883.335449 674.010681,882.880676 696.247498,881.936096 C709.972534,881.353210 723.693787,880.307617 737.366333,878.958374 C754.471741,877.270325 771.628540,875.689331 788.577515,872.924683 C814.681946,868.666504 840.816162,864.270386 866.599121,858.436340 C907.596802,849.159546 947.615723,836.540222 986.515747,820.391296 C1022.247375,805.557678 1056.717896,788.352600 1088.713745,766.600586 C1103.626343,756.462585 1117.590210,744.906799 1131.784668,733.740234 C1150.571655,718.960815 1166.417480,701.238098 1180.728149,682.256714 C1199.902710,656.824158 1214.290283,628.857849 1222.145996,597.800049 C1223.790527,591.298523 1225.032837,584.695312 1226.460693,578.138916 C1223.907959,583.477051 1222.745728,589.150330 1220.917114,594.599915 C1211.473389,622.742310 1196.041382,647.430542 1176.128784,669.210876 C1155.886353,691.351807 1133.287231,710.913391 1108.182495,727.447571 C1085.118530,742.637634 1061.479004,756.895813 1036.086426,767.860596 C1012.616821,777.994995 989.085693,788.094727 965.102051,796.904114 C932.852722,808.749634 899.776733,818.166809 866.060791,824.859497 C837.692871,830.490479 809.166992,835.424866 780.580872,839.820984 C762.132324,842.657959 743.482849,844.407471 724.861511,845.841309 C704.860840,847.381348 684.796631,848.505249 664.743835,848.845459 C644.630676,849.186768 624.488037,848.609863 604.375427,847.930115 C585.988220,847.308655 567.593323,846.388916 549.257812,844.907532 C530.475830,843.389954 511.709015,841.426758 493.032745,838.931274 C473.540955,836.326721 454.010529,833.594421 434.777374,829.575867 C410.319061,824.465393 386.010681,818.497620 361.873596,812.020081 C318.129761,800.280884 275.817291,784.467590 235.189072,764.434937 C219.707596,756.801514 204.714432,748.111816 189.844604,739.318542 C164.186844,724.146057 140.607758,706.102905 119.117401,685.454407 C111.589966,678.221863 104.714348,670.271790 97.913307,662.330627 C84.317680,646.455994 73.093109,628.982971 65.158455,609.632080 C60.837784,599.094971 57.688000,588.077698 54.104515,577.554199 C54.104515,578.339905 53.923809,579.522095 54.130848,580.631958 C59.833073,611.198120 71.020401,639.567261 87.833420,665.770630 C103.745079,690.569153 122.725914,712.714172 145.275253,731.599426 C160.255997,744.145691 175.491577,756.544678 191.625717,767.521057 C217.744873,785.290588 245.628296,800.085022 274.571930,812.875305 C307.754272,827.538757 341.831635,839.590881 376.734192,849.428528 C412.799927,859.594116 449.399170,867.401611 486.441589,872.692627 C514.744690,876.735474 543.268188,879.436768 571.770386,881.813599 C590.612061,883.384827 609.589722,883.325317 629.504211,883.997009 z"/>
  <path fill="#E11926" opacity="1.000000" stroke="none" d=" M112.149681,284.968994 C111.277153,271.554718 114.189308,258.648651 117.598465,245.847351 C124.581398,219.626602 138.022644,196.699966 154.867462,175.807587 C170.890198,155.934875 189.837723,139.078232 210.334579,123.774414 C232.110260,107.515762 255.149643,93.348442 279.457367,81.502525 C299.717468,71.629143 320.586761,62.721939 341.838470,55.239220 C368.269989,45.932697 395.223236,37.993584 422.240143,30.506723 C438.565277,25.982733 455.378693,23.103971 472.082428,20.095009 C489.181854,17.014763 506.374359,14.363699 523.603882,12.122957 C535.623779,10.559748 547.803223,10.265888 559.861877,8.950628 C598.045044,4.785915 636.363098,5.820976 674.630249,6.197383 C693.333191,6.381350 712.021973,8.574574 730.704529,10.021967 C741.319885,10.844365 751.957092,11.649150 762.499390,13.085605 C776.984314,15.059260 791.468567,17.216663 805.809021,20.029905 C827.863220,24.356409 850.024048,28.447649 871.716187,34.227604 C894.744812,40.363659 917.575439,47.547962 939.944519,55.765991 C961.248047,63.592529 982.260742,72.492531 1002.646179,82.464302 C1027.755737,94.746872 1051.862671,109.097809 1073.809937,126.516861 C1087.307617,137.229614 1100.342773,148.732071 1112.318359,161.106232 C1129.457153,178.815567 1143.622192,198.922211 1153.792114,221.530655 C1160.442017,236.313980 1165.404663,251.662445 1167.011353,267.926910 C1167.653564,274.426880 1168.667236,280.909454 1168.914795,287.422638 C1169.100830,292.317139 1168.334229,297.247833 1167.661377,302.920197 C1166.196777,310.642303 1165.857910,317.858063 1163.752930,324.515472 C1160.054932,336.212250 1155.276245,347.567261 1150.602051,359.079346 C1148.969238,360.529541 1147.601807,361.900818 1146.412598,363.412445 C1137.184082,375.143250 1128.861450,387.731995 1118.610596,398.484253 C1094.415283,423.863037 1065.448242,443.088379 1034.674194,459.574615 C993.300537,481.739258 949.446533,497.627594 904.260376,509.913605 C854.262390,523.507935 803.309814,532.001770 751.770996,536.812866 C729.968506,538.848083 708.058899,540.323608 686.173340,540.729919 C659.057068,541.233276 631.907593,540.661682 604.787048,539.978333 C587.206909,539.535400 569.629700,538.353394 552.093567,536.966492 C535.251831,535.634521 518.330261,534.433105 501.683502,531.709106 C473.431427,527.086243 445.179993,522.143860 417.264618,515.845215 C362.463318,503.480164 309.653381,485.234650 259.804352,458.975922 C218.562729,437.251312 180.792633,411.023224 151.069077,374.511536 C136.788269,356.969330 125.134315,337.828491 118.913811,315.902252 C116.038498,305.767242 114.366974,295.290680 112.149681,284.968994 M1057.887085,365.235901 C1058.170532,365.060913 1058.337891,364.808807 1058.411011,364.392731 C1058.411011,364.392731 1058.500610,364.390533 1058.924683,364.228516 C1059.193970,364.049469 1059.350586,363.799683 1059.409180,363.391174 C1059.409180,363.391174 1059.498291,363.389923 1059.924072,363.227936 C1060.194458,363.048187 1060.351196,362.797363 1060.492188,362.420837 C1060.492188,362.420837 1060.601562,362.395538 1061.153442,362.120728 C1068.130371,353.876648 1075.676880,346.044281 1081.985840,337.317352 C1109.706543,298.972412 1111.576538,258.702606 1089.609497,217.167053 C1077.533569,194.333847 1060.715576,175.254913 1040.821777,159.010864 C1029.256836,149.567612 1016.857666,141.145889 1005.781250,132.125046 C1019.499146,131.743454 1033.217041,131.361847 1046.935059,130.980255 C1047.081909,130.555862 1047.228760,130.131470 1047.375610,129.707092 C1034.815430,123.409851 1022.352356,116.909615 1009.677185,110.853165 C970.367249,92.070007 929.110107,78.726212 886.927917,68.316177 C848.092163,58.732010 808.772705,51.441788 768.873291,47.987968 C741.115662,45.585190 713.315613,43.057178 685.486084,42.244785 C645.420349,41.075199 605.294922,41.378689 565.382141,45.973873 C539.367004,48.969006 513.347656,52.080471 487.461395,56.004837 C450.317352,61.635887 413.891327,70.579872 378.126923,82.102180 C319.635834,100.946388 264.016968,125.496376 216.092499,164.967087 C190.623657,185.943298 169.044128,210.153091 156.075974,240.991989 C143.972382,269.774902 142.422684,299.221252 151.576706,329.147797 C158.210388,350.834808 169.943207,369.667999 184.499756,386.781738 C189.792206,393.003937 189.022385,393.974243 195.972427,387.732147 C196.957352,386.847473 198.080826,386.115265 199.152527,385.329315 C208.509308,378.467255 217.868896,371.608978 227.799927,365.013367 C228.781906,365.757782 229.763901,366.502228 230.961807,367.695618 C231.177780,367.968536 231.456207,368.140045 232.029022,368.672180 C232.327408,368.832581 232.625793,368.992981 233.279297,369.725830 C236.968552,373.026093 240.516663,376.502106 244.371170,379.596497 C262.173798,393.888458 281.144592,406.415100 301.381805,417.015869 C355.215485,445.215302 412.688934,462.445435 472.053314,474.220398 C503.806610,480.518677 535.836426,484.720795 568.001404,487.841431 C586.244751,489.611420 604.612976,490.446442 622.943848,490.855438 C638.515503,491.202850 654.124512,490.583923 669.698242,489.939209 C686.710144,489.234955 703.716858,488.225250 720.695251,486.944214 C734.654419,485.891052 748.685730,484.961639 762.478638,482.711975 C789.739807,478.265564 817.055359,473.824310 843.993225,467.794373 C894.938782,456.390411 943.935913,439.246735 989.859070,414.039917 C1012.203918,401.774994 1033.545410,388.024811 1052.637451,370.106873 C1052.842163,369.792419 1053.046753,369.477936 1053.131836,369.156982 C1053.131836,369.156982 1053.185547,369.264069 1053.713623,369.127319 C1053.911621,368.838165 1054.109619,368.548981 1054.124512,368.181580 C1054.124512,368.181580 1054.267822,368.319824 1054.777954,368.177399 C1054.966431,367.892761 1055.154907,367.608093 1054.987671,367.234741 C1054.987671,367.234741 1055.335449,367.352173 1055.825684,367.200836 C1056.004517,366.921570 1056.183228,366.642334 1056.302002,366.145691 C1056.302002,366.145691 1056.377441,366.369934 1056.848633,366.222382 C1057.152588,366.041260 1057.329224,365.775482 1057.322876,365.251556 C1057.322876,365.251556 1057.444580,365.387085 1057.887085,365.235901 z"/>
  <path fill="#A00A15" opacity="1.000000" stroke="none" d=" M1150.950073,359.065430 C1155.276245,347.567261 1160.054932,336.212250 1163.752930,324.515472 C1165.857910,317.858063 1166.196777,310.642303 1167.580566,303.376556 C1167.892456,318.069519 1167.954712,333.063873 1168.091309,348.520630 C1168.105469,364.140015 1168.002441,379.296997 1167.993164,394.454071 C1167.969238,433.605957 1167.404907,472.768951 1168.150635,511.906647 C1168.904175,551.462646 1155.903198,585.830139 1131.960327,616.596924 C1106.213623,649.681824 1073.488037,674.453674 1037.494751,695.216675 C999.922485,716.890503 960.093079,733.239685 918.726624,746.249207 C888.183044,755.855103 857.236084,763.652283 825.843689,769.612183 C805.606262,773.454285 785.161072,776.329102 764.718445,778.924377 C747.074463,781.164185 729.311035,782.494202 711.583801,784.035400 C702.061096,784.863342 692.503540,785.289368 682.687500,785.464111 C682.600708,783.064392 682.950745,781.097473 682.951904,779.130310 C682.993164,709.488586 683.001709,639.846802 683.476318,570.139038 C694.533081,569.400085 705.147461,568.942627 715.719360,568.005920 C733.405273,566.438843 751.169617,565.271423 768.708618,562.649109 C792.463684,559.097473 816.168091,554.948853 839.663818,549.969360 C907.029297,535.692322 971.480591,513.324707 1031.108887,478.341705 C1068.278320,456.535065 1102.182983,430.597931 1128.297241,395.864929 C1136.916138,384.401428 1143.458374,371.376434 1150.950073,359.065430 z"/>
  <path fill="#FC6E5A" opacity="1.000000" stroke="none" d=" M1150.602051,359.079346 C1143.458374,371.376434 1136.916138,384.401428 1128.297241,395.864929 C1102.182983,430.597931 1068.278320,456.535065 1031.108887,478.341705 C971.480591,513.324707 907.029297,535.692322 839.663818,549.969360 C816.168091,554.948853 792.463684,559.097473 768.708618,562.649109 C751.169617,565.271423 733.405273,566.438843 715.719360,568.005920 C705.147461,568.942627 694.533081,569.400085 683.030029,570.083862 C678.650024,570.359863 675.175842,570.876343 671.705872,570.849487 C648.918335,570.673218 626.090576,571.149414 603.355164,569.932373 C574.064758,568.364319 544.750061,566.242615 515.630859,562.795715 C491.011749,559.881592 466.622955,554.924011 442.199493,550.499451 C431.523102,548.565369 421.014435,545.705261 409.896729,543.142822 C409.896729,545.636414 409.896729,547.606689 409.896729,549.576904 C409.896729,617.179871 409.900696,684.782898 409.879913,752.385864 C409.879211,754.704224 409.630463,757.022522 409.497314,759.340820 C395.105255,755.546753 380.568634,752.225037 366.347076,747.873779 C315.166565,732.214417 266.222809,711.517395 221.274109,682.069214 C219.606537,680.976746 217.948212,679.870178 216.179504,677.997559 C216.084442,605.099609 216.116318,532.974182 215.995621,460.849030 C215.992340,458.887634 214.885132,456.207581 213.380386,455.077789 C192.563782,439.448669 173.121689,422.406555 156.610443,402.147766 C138.323120,379.709747 124.179283,355.095123 117.108795,326.858795 C114.831558,317.764557 113.773689,308.364960 112.157997,299.105072 C112.094757,294.699524 112.031517,290.293945 112.058975,285.428711 C114.366974,295.290680 116.038498,305.767242 118.913811,315.902252 C125.134315,337.828491 136.788269,356.969330 151.069077,374.511536 C180.792633,411.023224 218.562729,437.251312 259.804352,458.975922 C309.653381,485.234650 362.463318,503.480164 417.264618,515.845215 C445.179993,522.143860 473.431427,527.086243 501.683502,531.709106 C518.330261,534.433105 535.251831,535.634521 552.093567,536.966492 C569.629700,538.353394 587.206909,539.535400 604.787048,539.978333 C631.907593,540.661682 659.057068,541.233276 686.173340,540.729919 C708.058899,540.323608 729.968506,538.848083 751.770996,536.812866 C803.309814,532.001770 854.262390,523.507935 904.260376,509.913605 C949.446533,497.627594 993.300537,481.739258 1034.674194,459.574615 C1065.448242,443.088379 1094.415283,423.863037 1118.610596,398.484253 C1128.861450,387.731995 1137.184082,375.143250 1146.412598,363.412445 C1147.601807,361.900818 1148.969238,360.529541 1150.602051,359.079346 z"/>
  <path fill="#CD0D1A" opacity="1.000000" stroke="none" d=" M112.119888,299.565613 C113.773689,308.364960 114.831558,317.764557 117.108795,326.858795 C124.179283,355.095123 138.323120,379.709747 156.610443,402.147766 C173.121689,422.406555 192.563782,439.448669 213.380386,455.077789 C214.885132,456.207581 215.992340,458.887634 215.995621,460.849030 C216.116318,532.974182 216.084442,605.099609 216.026047,677.704224 C197.658783,666.505493 181.183060,652.559082 166.034943,637.057617 C143.184280,613.673950 125.395271,587.095337 116.817062,555.198425 C114.332603,545.960327 112.377701,536.253967 112.305511,526.746155 C111.857971,467.803467 112.016228,408.856201 111.900208,349.445435 C111.911949,332.662323 111.996872,316.344208 112.119888,299.565613 z"/>
  <path fill="#CD0D1A" opacity="1.000000" stroke="none" d=" M409.780823,759.608887 C409.630463,757.022522 409.879211,754.704224 409.879913,752.385864 C409.900696,684.782898 409.896729,617.179871 409.896729,549.576904 C409.896729,547.606689 409.896729,545.636414 409.896729,543.142822 C421.014435,545.705261 431.523102,548.565369 442.199493,550.499451 C466.622955,554.924011 491.011749,559.881592 515.630859,562.795715 C544.750061,566.242615 574.064758,568.364319 603.355164,569.932373 C626.090576,571.149414 648.918335,570.673218 671.705872,570.849487 C675.175842,570.876343 678.650024,570.359863 682.568542,570.149902 C683.001709,639.846802 682.993164,709.488586 682.951904,779.130310 C682.950745,781.097473 682.600708,783.064392 682.233398,785.390503 C662.479431,786.044189 642.906189,786.461731 623.331116,786.584106 C612.767151,786.650146 602.177979,786.567688 591.639465,785.916992 C575.557800,784.923950 559.500488,783.486389 543.450928,782.037964 C530.122375,780.835205 516.777283,779.663757 503.517975,777.891296 C490.384277,776.135681 477.305939,773.873047 464.280731,771.421631 C446.726471,768.117737 429.244995,764.426636 411.739960,760.864075 C411.139313,760.741882 410.621002,760.215088 409.780823,759.608887 z"/>
  <path fill="#FEFEFE" opacity="1.000000" stroke="none" d=" M629.005371,883.996460 C609.589722,883.325317 590.612061,883.384827 571.770386,881.813599 C543.268188,879.436768 514.744690,876.735474 486.441589,872.692627 C449.399170,867.401611 412.799927,859.594116 376.734192,849.428528 C341.831635,839.590881 307.754272,827.538757 274.571930,812.875305 C245.628296,800.085022 217.744873,785.290588 191.625717,767.521057 C175.491577,756.544678 160.255997,744.145691 145.275253,731.599426 C122.725914,712.714172 103.745079,690.569153 87.833420,665.770630 C71.020401,639.567261 59.833073,611.198120 54.130848,580.631958 C53.923809,579.522095 54.104515,578.339905 54.104515,577.554199 C57.688000,588.077698 60.837784,599.094971 65.158455,609.632080 C73.093109,628.982971 84.317680,646.455994 97.913307,662.330627 C104.714348,670.271790 111.589966,678.221863 119.117401,685.454407 C140.607758,706.102905 164.186844,724.146057 189.844604,739.318542 C204.714432,748.111816 219.707596,756.801514 235.189072,764.434937 C275.817291,784.467590 318.129761,800.280884 361.873596,812.020081 C386.010681,818.497620 410.319061,824.465393 434.777374,829.575867 C454.010529,833.594421 473.540955,836.326721 493.032745,838.931274 C511.709015,841.426758 530.475830,843.389954 549.257812,844.907532 C567.593323,846.388916 585.988220,847.308655 604.375427,847.930115 C624.488037,848.609863 644.630676,849.186768 664.743835,848.845459 C684.796631,848.505249 704.860840,847.381348 724.861511,845.841309 C743.482849,844.407471 762.132324,842.657959 780.580872,839.820984 C809.166992,835.424866 837.692871,830.490479 866.060791,824.859497 C899.776733,818.166809 932.852722,808.749634 965.102051,796.904114 C989.085693,788.094727 1012.616821,777.994995 1036.086426,767.860596 C1061.479004,756.895813 1085.118530,742.637634 1108.182495,727.447571 C1133.287231,710.913391 1155.886353,691.351807 1176.128784,669.210876 C1196.041382,647.430542 1211.473389,622.742310 1220.917114,594.599915 C1222.745728,589.150330 1223.907959,583.477051 1226.460693,578.138916 C1225.032837,584.695312 1223.790527,591.298523 1222.145996,597.800049 C1214.290283,628.857849 1199.902710,656.824158 1180.728149,682.256714 C1166.417480,701.238098 1150.571655,718.960815 1131.784668,733.740234 C1117.590210,744.906799 1103.626343,756.462585 1088.713745,766.600586 C1056.717896,788.352600 1022.247375,805.557678 986.515747,820.391296 C947.615723,836.540222 907.596802,849.159546 866.599121,858.436340 C840.816162,864.270386 814.681946,868.666504 788.577515,872.924683 C771.628540,875.689331 754.471741,877.270325 737.366333,878.958374 C723.693787,880.307617 709.972534,881.353210 696.247498,881.936096 C674.010681,882.880676 651.753052,883.335449 629.005371,883.996460 z"/>
  <path fill="#B1B2B2" opacity="1.000000" stroke="none" d=" M1247.347168,661.026245 C1245.970825,672.969360 1245.151245,685.243530 1242.337158,697.041870 C1230.189697,747.967712 1202.546143,790.065552 1166.305786,826.924866 C1124.383301,869.563416 1074.790283,901.219360 1021.130615,926.824646 C970.738281,950.870728 918.066895,968.439270 863.695862,980.912720 C844.539307,985.307495 825.284912,989.366760 805.939148,992.816406 C790.928406,995.493103 775.722839,997.121582 760.573181,998.963013 C745.422546,1000.804382 730.244995,1002.444580 715.056580,1003.944275 C708.485168,1004.593201 701.860046,1004.869568 695.254150,1004.967896 C668.661865,1005.364014 642.066406,1005.926636 615.474426,1005.826233 C598.443359,1005.761902 581.397095,1004.954773 564.393372,1003.903137 C550.480469,1003.042603 536.585999,1001.608643 522.746826,999.911560 C509.465607,998.282898 496.243744,996.124390 483.036896,993.949158 C470.029816,991.807007 456.989929,989.739990 444.115906,986.942688 C424.695099,982.722961 405.263184,978.424683 386.085815,973.236511 C308.439789,952.230164 235.201096,921.388489 169.488510,874.262512 C129.494339,845.580383 94.699165,811.777832 68.417229,769.774658 C52.377800,744.140808 41.383652,716.511658 35.034210,686.958923 C33.106628,677.987244 31.107311,669.093445 32.152786,659.377869 C33.133453,662.110046 34.298252,665.254150 34.809795,668.501160 C41.769672,712.678894 60.911961,751.331909 88.548126,785.973145 C97.761253,797.521606 107.479889,808.792603 117.982613,819.162292 C146.411804,847.231445 178.559631,870.492798 213.029953,890.634521 C256.908539,916.273621 303.398651,935.907471 351.710968,951.384460 C390.813660,963.911194 430.590973,973.783508 471.178925,979.997437 C496.891693,983.934021 522.735168,987.113647 548.593567,989.966003 C564.087952,991.675232 579.711487,992.596436 595.299316,992.990906 C622.259277,993.673035 649.252991,994.367126 676.201477,993.734375 C697.739441,993.228638 719.236023,990.820129 740.742493,989.146423 C773.192322,986.621033 805.260071,981.393005 837.138123,975.002014 C878.073303,966.795227 918.218994,955.721558 957.476746,941.436523 C984.399231,931.639954 1010.717773,920.497131 1036.243164,907.472839 C1074.318481,888.044922 1110.094116,865.220947 1142.543091,837.218811 C1167.389160,815.777710 1189.308960,791.846130 1207.336548,764.420410 C1226.947876,734.585449 1240.263306,702.227295 1245.868042,666.840759 C1246.170898,664.928894 1246.610352,663.038635 1247.347168,661.026245 z"/>
  <path fill="#007C45" opacity="1.000000" stroke="none" d=" M1052.103882,370.339661 C1033.545410,388.024811 1012.203918,401.774994 989.859070,414.039917 C943.935913,439.246735 894.938782,456.390411 843.993225,467.794373 C817.055359,473.824310 789.739807,478.265564 762.478638,482.711975 C748.685730,484.961639 734.654419,485.891052 720.695251,486.944214 C703.716858,488.225250 686.710144,489.234955 669.698242,489.939209 C654.124512,490.583923 638.515503,491.202850 622.943848,490.855438 C604.612976,490.446442 586.244751,489.611420 568.001404,487.841431 C535.836426,484.720795 503.806610,480.518677 472.053314,474.220398 C412.688934,462.445435 355.215485,445.215302 301.381805,417.015869 C281.144592,406.415100 262.173798,393.888458 244.371170,379.596497 C240.516663,376.502106 236.968552,373.026093 233.136627,369.155212 C233.005280,368.394379 233.016602,368.204132 233.375916,367.974915 C251.186615,356.617798 268.649323,345.299622 286.394470,334.148895 C297.074982,348.375488 308.900452,361.031708 322.498047,372.108612 C349.596466,394.183746 379.886902,410.443329 412.727966,422.012848 C453.141541,436.250092 494.314331,447.718628 536.928833,453.049652 C557.759155,455.655518 578.720703,458.291565 599.660278,458.635193 C619.794373,458.965546 640.011719,456.745300 660.128723,454.936096 C683.831299,452.804413 706.132996,446.214569 724.496582,430.188324 C738.150330,418.272461 741.461304,404.082794 730.170532,388.957306 C727.343872,385.170593 723.145813,382.407623 719.300171,379.011169 C708.752991,370.410950 698.286682,362.197418 688.318298,353.418457 C684.693054,350.225830 681.579041,349.692017 677.142578,350.941101 C631.033936,363.922913 584.888245,376.773468 538.733643,389.591431 C520.914124,394.540222 503.045746,399.312836 484.900757,403.931458 C484.473999,403.073273 484.107666,402.386810 484.252472,401.834412 C492.124817,371.804504 495.691132,341.101990 496.717194,310.228668 C497.398254,289.736450 495.680664,269.158813 494.854065,248.626801 C494.682831,244.373550 493.704254,240.152817 493.488739,235.950546 C497.968109,234.687927 502.042358,233.345108 506.147156,232.102997 C547.074097,219.718460 588.005981,207.350555 629.334656,194.986298 C641.794373,198.613510 653.809937,202.395462 665.926514,205.819687 C698.283752,214.964081 730.582275,224.343613 763.098816,232.888824 C791.264465,240.290619 819.626099,246.990097 848.031372,253.424866 C877.051392,259.998901 906.240601,265.824066 935.327087,272.109741 C939.307007,272.969849 943.121033,274.597076 946.658813,276.012817 C943.143677,277.095428 939.994995,278.082458 936.817566,278.966125 C882.220825,294.150208 827.617981,309.312561 773.036011,324.549530 C771.726624,324.915039 770.641357,326.082825 769.043091,326.912170 C760.828369,328.905670 758.273804,334.357819 762.916565,339.383087 C777.921936,355.624573 794.427979,369.733215 815.071411,378.678162 C835.438599,387.503418 856.912292,390.028778 878.628052,390.734467 C888.792114,391.064758 899.118225,389.504425 909.223450,387.882599 C928.391418,384.806274 946.606506,378.793243 963.158997,368.296326 C976.663147,359.732544 987.437683,348.412415 997.528015,336.122498 C1017.729675,311.517181 1022.828796,284.246124 1013.520264,254.050339 C1007.270630,233.777420 995.540100,216.773392 981.553589,201.182938 C980.003174,199.454788 977.638489,198.457077 975.380371,196.951462 C973.054993,194.587234 971.000793,192.392105 968.848022,189.922745 C968.424805,189.453903 968.100220,189.259277 967.481384,188.922058 C961.738586,184.152252 956.646606,179.001114 950.770447,175.002258 C936.672058,165.407959 922.205383,156.354797 908.351318,147.065872 C917.529907,146.372299 926.237549,145.586227 934.960510,145.045883 C947.815063,144.249603 960.687073,143.728729 973.538208,142.885773 C979.056030,142.523804 984.540100,141.647766 990.353149,141.141663 C1007.243713,151.401093 1023.208008,162.317886 1037.876099,175.163254 C1059.905640,194.455093 1078.553101,216.227280 1089.284180,243.822220 C1096.040039,261.194794 1098.920898,279.180267 1095.223511,297.833282 C1090.653442,320.889404 1078.380371,339.750946 1063.385498,357.202667 C1062.135742,358.657196 1061.514771,360.651886 1060.601562,362.395569 C1060.601562,362.395538 1060.492188,362.420837 1060.140503,362.390045 C1059.692017,362.702820 1059.595093,363.046356 1059.498291,363.389923 C1059.498291,363.389923 1059.409180,363.391174 1059.099731,363.376068 C1058.693726,363.704163 1058.597168,364.047363 1058.500610,364.390533 C1058.500610,364.390533 1058.411011,364.392731 1058.098633,364.376709 C1057.672485,364.702820 1057.558472,365.044952 1057.444580,365.387085 C1057.444580,365.387085 1057.322876,365.251556 1057.047852,365.299133 C1056.640869,365.687775 1056.509155,366.028839 1056.377441,366.369934 C1056.377441,366.369934 1056.302002,366.145691 1056.029297,366.238708 C1055.616089,366.671844 1055.475708,367.011993 1055.335449,367.352173 C1055.335449,367.352173 1054.987671,367.234741 1054.865479,367.276550 C1054.584839,367.652191 1054.426392,367.985992 1054.267822,368.319824 C1054.267822,368.319824 1054.124512,368.181580 1053.922729,368.239075 C1053.542480,368.619080 1053.364014,368.941559 1053.185547,369.264069 C1053.185547,369.264069 1053.131836,369.156982 1052.895508,369.232727 C1052.474121,369.652191 1052.289062,369.995941 1052.103882,370.339661 z"/>
  <path fill="#0A5D31" opacity="1.000000" stroke="none" d=" M1060.877563,362.258148 C1061.514771,360.651886 1062.135742,358.657196 1063.385498,357.202667 C1078.380371,339.750946 1090.653442,320.889404 1095.223511,297.833282 C1098.920898,279.180267 1096.040039,261.194794 1089.284180,243.822220 C1078.553101,216.227280 1059.905640,194.455093 1037.876099,175.163254 C1023.208008,162.317886 1007.243713,151.401093 990.035278,140.998749 C954.148682,120.020096 916.279968,105.680008 876.958862,95.071693 C831.260315,82.742821 784.954224,73.385384 737.773071,68.981964 C715.642090,66.916489 693.451233,64.615608 671.260132,64.290863 C642.338684,63.867630 613.368896,64.825043 584.460632,66.106087 C565.761658,66.934723 547.013489,68.586082 528.506348,71.340218 C503.114075,75.118973 477.779358,79.596825 452.685883,85.008171 C395.551849,97.329002 340.321747,115.313416 289.315735,144.462540 C260.819336,160.747772 234.921814,180.459518 215.314545,207.276047 C197.827271,231.193085 187.674759,257.410400 190.859039,287.793945 C193.090561,309.086548 201.275589,327.816376 213.518799,345.049652 C216.359421,349.048035 219.080246,353.131500 221.514160,357.314270 C213.357239,346.970215 204.515091,337.089722 197.944199,325.878143 C184.813522,303.473877 179.159927,279.049103 183.285629,253.007401 C187.768814,224.709503 201.374664,200.908539 220.520432,180.094986 C243.443771,155.174805 270.943604,136.367752 300.909912,120.995506 C345.795197,97.970047 393.310730,82.203682 442.367004,71.166405 C467.501709,65.511284 492.967133,61.225067 518.402161,57.044304 C533.169006,54.617065 548.147522,53.342617 563.074646,52.058990 C581.824646,50.446621 600.611938,48.411781 619.396790,48.261539 C647.424377,48.037373 675.484253,48.847054 703.490601,50.102982 C719.899292,50.838821 736.262390,53.037857 752.588440,55.046703 C769.615784,57.141842 786.705017,59.121433 803.530334,62.376064 C826.435730,66.806778 849.209106,72.021294 871.870483,77.586411 C901.227356,84.795792 929.887085,94.338600 957.237671,107.266418 C973.425110,114.917770 988.989380,123.887581 1004.833862,132.264526 C1016.857666,141.145889 1029.256836,149.567612 1040.821777,159.010864 C1060.715576,175.254913 1077.533569,194.333847 1089.609497,217.167053 C1111.576538,258.702606 1109.706543,298.972412 1081.985840,337.317352 C1075.676880,346.044281 1068.130371,353.876648 1060.877563,362.258148 z"/>
  <path fill="#FE6F64" opacity="1.000000" stroke="none" d=" M1005.307556,132.194794 C988.989380,123.887581 973.425110,114.917770 957.237671,107.266418 C929.887085,94.338600 901.227356,84.795792 871.870483,77.586411 C849.209106,72.021294 826.435730,66.806778 803.530334,62.376064 C786.705017,59.121433 769.615784,57.141842 752.588440,55.046703 C736.262390,53.037857 719.899292,50.838821 703.490601,50.102982 C675.484253,48.847054 647.424377,48.037373 619.396790,48.261539 C600.611938,48.411781 581.824646,50.446621 563.074646,52.058990 C548.147522,53.342617 533.169006,54.617065 518.402161,57.044304 C492.967133,61.225067 467.501709,65.511284 442.367004,71.166405 C393.310730,82.203682 345.795197,97.970047 300.909912,120.995506 C270.943604,136.367752 243.443771,155.174805 220.520432,180.094986 C201.374664,200.908539 187.768814,224.709503 183.285629,253.007401 C179.159927,279.049103 184.813522,303.473877 197.944199,325.878143 C204.515091,337.089722 213.357239,346.970215 221.550919,357.290894 C221.929718,357.129059 221.910858,357.042725 221.774551,357.420258 C222.078842,357.894989 222.519440,357.992188 222.965378,358.051941 C222.970703,358.014557 222.895218,358.017700 222.625137,358.303345 C222.885925,359.081604 223.416794,359.574188 223.967407,360.031250 C223.987167,359.995728 223.924606,360.047760 223.942993,360.369324 C224.624924,361.152710 225.288483,361.614532 225.924866,362.045837 C225.897690,362.015259 225.830948,362.062531 225.853485,362.374176 C226.326569,363.373749 226.777100,364.061676 227.227646,364.749603 C217.868896,371.608978 208.509308,378.467255 199.152527,385.329315 C198.080826,386.115265 196.957352,386.847473 195.972427,387.732147 C189.022385,393.974243 189.792206,393.003937 184.499756,386.781738 C169.943207,369.667999 158.210388,350.834808 151.576706,329.147797 C142.422684,299.221252 143.972382,269.774902 156.075974,240.991989 C169.044128,210.153091 190.623657,185.943298 216.092499,164.967087 C264.016968,125.496376 319.635834,100.946388 378.126923,82.102180 C413.891327,70.579872 450.317352,61.635887 487.461395,56.004837 C513.347656,52.080471 539.367004,48.969006 565.382141,45.973873 C605.294922,41.378689 645.420349,41.075199 685.486084,42.244785 C713.315613,43.057178 741.115662,45.585190 768.873291,47.987968 C808.772705,51.441788 848.092163,58.732010 886.927917,68.316177 C929.110107,78.726212 970.367249,92.070007 1009.677185,110.853165 C1022.352356,116.909615 1034.815430,123.409851 1047.375610,129.707092 C1047.228760,130.131470 1047.081909,130.555862 1046.935059,130.980255 C1033.217041,131.361847 1019.499146,131.743454 1005.307556,132.194794 z"/>
  <path fill="#0A5D31" opacity="1.000000" stroke="none" d=" M227.513794,364.881470 C226.777100,364.061676 226.326569,363.373749 226.210510,362.344177 C228.061356,363.642456 229.577728,365.282440 231.006500,367.002869 C230.918900,367.083344 230.745895,367.246643 230.745895,367.246643 C229.763901,366.502228 228.781906,365.757782 227.513794,364.881470 z"/>
  <path fill="#0A5D31" opacity="1.000000" stroke="none" d=" M1058.712646,364.309509 C1058.597168,364.047363 1058.693726,363.704163 1059.092529,363.420044 C1059.350586,363.799683 1059.193970,364.049469 1058.712646,364.309509 z"/>
  <path fill="#0A5D31" opacity="1.000000" stroke="none" d=" M1052.370605,370.223267 C1052.289062,369.995941 1052.474121,369.652191 1052.955322,369.235962 C1053.046753,369.477936 1052.842163,369.792419 1052.370605,370.223267 z"/>
  <path fill="#0A5D31" opacity="1.000000" stroke="none" d=" M1053.449585,369.195679 C1053.364014,368.941559 1053.542480,368.619080 1054.014282,368.278198 C1054.109619,368.548981 1053.911621,368.838165 1053.449585,369.195679 z"/>
  <path fill="#0A5D31" opacity="1.000000" stroke="none" d=" M233.027939,368.013885 C233.016602,368.204132 233.005280,368.394379 232.959076,368.869019 C232.625793,368.992981 232.327408,368.832581 231.983246,368.365540 C231.937454,368.058929 232.074631,367.904785 232.314484,367.915710 C232.554321,367.926666 233.027939,368.013885 233.027939,368.013885 z"/>
  <path fill="#0A5D31" opacity="1.000000" stroke="none" d=" M1054.522949,368.248596 C1054.426392,367.985992 1054.584839,367.652191 1055.043457,367.320923 C1055.154907,367.608093 1054.966431,367.892761 1054.522949,368.248596 z"/>
  <path fill="#0A5D31" opacity="1.000000" stroke="none" d=" M231.867279,368.134521 C231.456207,368.140045 231.177780,367.968536 230.853851,367.471130 C230.745895,367.246643 230.918900,367.083344 231.225250,367.104004 C231.806580,367.319244 231.987595,367.579285 232.074631,367.904785 C232.074631,367.904785 231.937454,368.058929 231.867279,368.134521 z"/>
  <path fill="#0A5D31" opacity="1.000000" stroke="none" d=" M1055.580566,367.276489 C1055.475708,367.011993 1055.616089,366.671844 1056.059204,366.347412 C1056.183228,366.642334 1056.004517,366.921570 1055.580566,367.276489 z"/>
  <path fill="#0A5D31" opacity="1.000000" stroke="none" d=" M1056.613037,366.296143 C1056.509155,366.028839 1056.640869,365.687775 1057.075684,365.385864 C1057.329224,365.775482 1057.152588,366.041260 1056.613037,366.296143 z"/>
  <path fill="#0A5D31" opacity="1.000000" stroke="none" d=" M1057.665771,365.311493 C1057.558472,365.044952 1057.672485,364.702820 1058.087769,364.420135 C1058.337891,364.808807 1058.170532,365.060913 1057.665771,365.311493 z"/>
  <path fill="#0A5D31" opacity="1.000000" stroke="none" d=" M1059.711182,363.308929 C1059.595093,363.046356 1059.692017,362.702820 1060.091431,362.417328 C1060.351196,362.797363 1060.194458,363.048187 1059.711182,363.308929 z"/>
  <path fill="#E11926" opacity="1.000000" stroke="none" d=" M769.451599,326.876404 C770.641357,326.082825 771.726624,324.915039 773.036011,324.549530 C827.617981,309.312561 882.220825,294.150208 936.817566,278.966125 C939.994995,278.082458 943.143677,277.095428 947.046143,276.053497 C959.318481,272.722717 970.850403,269.494965 983.528259,265.946411 C981.871582,265.327576 981.499390,265.130798 981.103394,265.048798 C937.655334,256.045166 894.082153,247.599670 850.793213,237.887314 C813.654419,229.554779 776.706909,220.275925 739.923279,210.482178 C707.755127,201.917313 675.932983,192.053009 644.251038,182.535187 C655.832520,179.643768 667.064392,176.705109 678.420654,174.371887 C704.214233,169.072433 730.017090,163.788467 755.915771,159.041107 C775.128174,155.519363 794.469482,152.660690 813.804565,149.860092 C831.337463,147.320557 848.939148,145.256149 866.511230,142.987564 C874.718384,141.928024 882.927185,140.881042 891.498840,139.886963 C897.204102,142.324799 902.545715,144.704041 907.887329,147.083267 C922.205383,156.354797 936.672058,165.407959 950.770447,175.002258 C956.646606,179.001114 961.738586,184.152252 967.595703,189.183899 C968.318359,189.791214 968.632507,189.994095 968.946594,190.196976 C971.000793,192.392105 973.054993,194.587234 975.510254,197.273468 C976.105347,198.034988 976.276672,198.325607 976.496643,198.572922 C993.673706,217.880310 1006.870239,239.060150 1009.419128,265.636139 C1011.009155,282.213989 1008.224915,297.661255 999.085571,311.658997 C985.501587,332.464203 969.063965,350.392639 945.836121,360.608429 C919.915344,372.008606 892.810974,376.582733 864.437073,374.145538 C843.823608,372.374908 824.330505,367.501984 806.221008,357.277222 C792.123901,349.317810 780.494812,338.476135 769.451599,326.876404 z"/>
  <path fill="#38996B" opacity="1.000000" stroke="none" d=" M908.351318,147.065872 C902.545715,144.704041 897.204102,142.324799 891.286621,139.609390 C886.288269,137.414917 881.907104,135.449936 877.436829,133.714554 C821.533142,112.012466 763.152039,101.625061 703.760437,96.110184 C689.238037,94.761688 674.604736,94.607605 659.702637,93.638474 C648.652405,93.253494 637.922241,93.092422 627.191650,93.057747 C625.454468,93.052124 623.715454,93.607735 621.512695,93.948013 C614.244324,94.315659 607.425537,94.452377 600.639954,95.001022 C585.791565,96.201569 570.871704,96.989525 556.142395,99.081635 C534.279541,102.186958 512.369995,105.419266 490.809204,110.109306 C429.270844,123.495514 370.880005,144.375519 321.020264,185.093933 C320.492218,185.477005 320.253754,185.781311 320.018311,186.049255 C320.021301,186.012894 320.085724,186.047119 319.761719,186.042023 C319.008392,186.441132 318.579071,186.845322 318.115387,187.211334 C318.081024,187.173141 318.177032,187.136520 317.907471,187.190948 C317.464783,187.551865 317.291687,187.858383 317.080841,188.111694 C317.043060,188.058472 317.159393,188.117676 316.892090,188.175308 C316.448364,188.535553 316.271973,188.838150 316.063477,189.092957 C316.031372,189.045151 316.135437,189.094482 315.871460,189.156830 C315.431305,189.519348 315.255157,189.819550 315.047516,190.077972 C315.016052,190.036209 315.112976,190.075470 314.852905,190.142944 C314.416840,190.507996 314.240875,190.805573 314.108765,191.094208 C314.152618,191.085266 314.173553,191.172272 313.816589,191.126450 C309.977905,194.383621 306.496155,197.686615 302.727966,201.162201 C291.537262,213.499420 281.912048,226.480240 275.588043,241.726151 C266.279510,264.167053 263.540833,286.768646 273.791840,309.617584 C277.512970,317.911835 281.983459,325.869965 286.112030,333.981445 C268.649323,345.299622 251.186615,356.617798 233.375916,367.974915 C233.027939,368.013885 232.554321,367.926666 232.314484,367.915710 C231.987595,367.579285 231.806580,367.319244 231.312851,367.023529 C229.577728,365.282440 228.061356,363.642456 226.187958,362.032532 C225.830948,362.062531 225.897690,362.015259 225.938477,361.699036 C225.294388,360.937775 224.609497,360.492767 223.924606,360.047760 C223.924606,360.047760 223.987167,359.995728 224.010880,359.709442 C223.654800,358.954681 223.275009,358.486176 222.895218,358.017700 C222.895218,358.017700 222.970703,358.014557 222.892365,357.790497 C222.512955,357.391846 222.211914,357.217285 221.910858,357.042725 C221.910858,357.042725 221.929718,357.129059 221.892944,357.152466 C219.080246,353.131500 216.359421,349.048035 213.518799,345.049652 C201.275589,327.816376 193.090561,309.086548 190.859039,287.793945 C187.674759,257.410400 197.827271,231.193085 215.314545,207.276047 C234.921814,180.459518 260.819336,160.747772 289.315735,144.462540 C340.321747,115.313416 395.551849,97.329002 452.685883,85.008171 C477.779358,79.596825 503.114075,75.118973 528.506348,71.340218 C547.013489,68.586082 565.761658,66.934723 584.460632,66.106087 C613.368896,64.825043 642.338684,63.867630 671.260132,64.290863 C693.451233,64.615608 715.642090,66.916489 737.773071,68.981964 C784.954224,73.385384 831.260315,82.742821 876.958862,95.071693 C916.279968,105.680008 954.148682,120.020096 989.721680,140.862366 C984.540100,141.647766 979.056030,142.523804 973.538208,142.885773 C960.687073,143.728729 947.815063,144.249603 934.960510,145.045883 C926.237549,145.586227 917.529907,146.372299 908.351318,147.065872 z"/>
  <path fill="#E11926" opacity="1.000000" stroke="none" d=" M485.199615,404.165741 C503.045746,399.312836 520.914124,394.540222 538.733643,389.591431 C584.888245,376.773468 631.033936,363.922913 677.142578,350.941101 C681.579041,349.692017 684.693054,350.225830 688.318298,353.418457 C698.286682,362.197418 708.752991,370.410950 719.446472,379.328613 C720.388916,380.459015 720.885132,381.128174 721.428650,381.756348 C731.839478,393.788513 731.913879,404.810486 720.012695,415.161774 C713.122559,421.154572 704.893982,426.068909 696.527527,429.815552 C673.633545,440.067810 648.814087,441.302643 624.296021,442.778046 C609.768005,443.652313 595.095215,442.629761 580.513245,441.927307 C569.963562,441.419037 559.426941,440.274719 548.935181,438.997375 C514.302551,434.780792 480.456299,426.891663 447.025940,417.015991 C404.342560,404.406891 363.835968,387.420959 328.974304,358.977173 C315.526642,348.005096 303.056793,336.056946 293.877136,321.023743 C310.106812,311.832642 325.765869,302.292053 342.115875,294.136627 C368.601196,280.925720 395.302643,268.087433 422.364288,256.111969 C443.154388,246.911804 464.639435,239.281998 485.890686,231.399536 C486.975952,247.525238 488.821838,263.207550 488.777832,278.884583 C488.726440,297.190643 487.803558,315.576721 485.824585,333.772095 C483.777374,352.595123 480.125000,371.250702 476.928009,389.937317 C475.916718,395.848663 474.111969,401.624237 472.478394,408.239258 C477.425568,406.655090 481.312592,405.410431 485.199615,404.165741 z"/>
  <path fill="#0A5C31" opacity="1.000000" stroke="none" d=" M484.900757,403.931458 C481.312592,405.410431 477.425568,406.655090 472.478394,408.239258 C474.111969,401.624237 475.916718,395.848663 476.928009,389.937317 C480.125000,371.250702 483.777374,352.595123 485.824585,333.772095 C487.803558,315.576721 488.726440,297.190643 488.777832,278.884583 C488.821838,263.207550 486.975952,247.525238 485.785889,231.008270 C485.395294,227.724640 485.317627,225.258057 484.953857,222.834396 C480.766663,194.935608 475.647430,167.234451 467.342590,140.210587 C465.132782,133.019913 463.042877,125.792397 460.659729,117.781067 C462.958252,118.663162 464.435333,119.203682 465.892639,119.793076 C524.314697,143.421631 583.693726,164.343628 643.957947,182.762787 C675.932983,192.053009 707.755127,201.917313 739.923279,210.482178 C776.706909,220.275925 813.654419,229.554779 850.793213,237.887314 C894.082153,247.599670 937.655334,256.045166 981.103394,265.048798 C981.499390,265.130798 981.871582,265.327576 983.528259,265.946411 C970.850403,269.494965 959.318481,272.722717 947.399292,275.909790 C943.121033,274.597076 939.307007,272.969849 935.327087,272.109741 C906.240601,265.824066 877.051392,259.998901 848.031372,253.424866 C819.626099,246.990097 791.264465,240.290619 763.098816,232.888824 C730.582275,224.343613 698.283752,214.964081 665.926514,205.819687 C653.809937,202.395462 641.794373,198.613510 629.115540,194.707825 C577.059204,176.706924 525.620117,158.992844 473.995392,141.214859 C474.115417,142.099991 474.159698,143.555908 474.524292,144.926620 C476.486115,152.302551 479.007355,159.564529 480.452118,167.036667 C484.883423,189.955032 488.912415,212.951187 493.097839,235.917099 C493.704254,240.152817 494.682831,244.373550 494.854065,248.626801 C495.680664,269.158813 497.398254,289.736450 496.717194,310.228668 C495.691132,341.101990 492.124817,371.804504 484.252472,401.834412 C484.107666,402.386810 484.473999,403.073273 484.900757,403.931458 z"/>
  <path fill="#095C30" opacity="1.000000" stroke="none" d=" M293.616760,321.296143 C303.056793,336.056946 315.526642,348.005096 328.974304,358.977173 C363.835968,387.420959 404.342560,404.406891 447.025940,417.015991 C480.456299,426.891663 514.302551,434.780792 548.935181,438.997375 C559.426941,440.274719 569.963562,441.419037 580.513245,441.927307 C595.095215,442.629761 609.768005,443.652313 624.296021,442.778046 C648.814087,441.302643 673.633545,440.067810 696.527527,429.815552 C704.893982,426.068909 713.122559,421.154572 720.012695,415.161774 C731.913879,404.810486 731.839478,393.788513 721.428650,381.756348 C720.885132,381.128174 720.388916,380.459015 719.724365,379.491547 C723.145813,382.407623 727.343872,385.170593 730.170532,388.957306 C741.461304,404.082794 738.150330,418.272461 724.496582,430.188324 C706.132996,446.214569 683.831299,452.804413 660.128723,454.936096 C640.011719,456.745300 619.794373,458.965546 599.660278,458.635193 C578.720703,458.291565 557.759155,455.655518 536.928833,453.049652 C494.314331,447.718628 453.141541,436.250092 412.727966,422.012848 C379.886902,410.443329 349.596466,394.183746 322.498047,372.108612 C308.900452,361.031708 297.074982,348.375488 286.394470,334.148895 C281.983459,325.869965 277.512970,317.911835 273.791840,309.617584 C263.540833,286.768646 266.279510,264.167053 275.588043,241.726151 C281.912048,226.480240 291.537262,213.499420 302.963074,201.288361 C303.678162,201.536087 303.871704,201.830261 303.920959,202.424622 C301.416504,205.726288 298.903412,208.620941 296.721069,211.746521 C282.583832,231.994034 272.973907,253.746201 276.070801,279.181519 C277.967621,294.760071 284.313019,308.696442 293.616760,321.296143 z"/>
  <path fill="#38996B" opacity="1.000000" stroke="none" d=" M493.488770,235.950546 C488.912415,212.951187 484.883423,189.955032 480.452118,167.036667 C479.007355,159.564529 476.486115,152.302551 474.524292,144.926620 C474.159698,143.555908 474.115417,142.099991 473.995392,141.214859 C525.620117,158.992844 577.059204,176.706924 628.717407,194.699463 C588.005981,207.350555 547.074097,219.718460 506.147156,232.102997 C502.042358,233.345108 497.968109,234.687927 493.488770,235.950546 z"/>
  <path fill="#095C30" opacity="1.000000" stroke="none" d=" M769.043091,326.912170 C780.494812,338.476135 792.123901,349.317810 806.221008,357.277222 C824.330505,367.501984 843.823608,372.374908 864.437073,374.145538 C892.810974,376.582733 919.915344,372.008606 945.836121,360.608429 C969.063965,350.392639 985.501587,332.464203 999.085571,311.658997 C1008.224915,297.661255 1011.009155,282.213989 1009.419128,265.636139 C1006.870239,239.060150 993.673706,217.880310 976.496643,198.572922 C976.276672,198.325607 976.105347,198.034988 975.781372,197.442596 C977.638489,198.457077 980.003174,199.454788 981.553589,201.182938 C995.540100,216.773392 1007.270630,233.777420 1013.520264,254.050339 C1022.828796,284.246124 1017.729675,311.517181 997.528015,336.122498 C987.437683,348.412415 976.663147,359.732544 963.158997,368.296326 C946.606506,378.793243 928.391418,384.806274 909.223450,387.882599 C899.118225,389.504425 888.792114,391.064758 878.628052,390.734467 C856.912292,390.028778 835.438599,387.503418 815.071411,378.678162 C794.427979,369.733215 777.921936,355.624573 762.916565,339.383087 C758.273804,334.357819 760.828369,328.905670 769.043091,326.912170 z"/>
  <path fill="#095C30" opacity="1.000000" stroke="none" d=" M968.848022,189.922745 C968.632507,189.994095 968.318359,189.791214 967.889954,189.326508 C968.100220,189.259277 968.424805,189.453903 968.848022,189.922745 z"/>
  <path fill="#0A5D31" opacity="1.000000" stroke="none" d=" M223.942993,360.369324 C224.609497,360.492767 225.294388,360.937775 225.965637,361.729614 C225.288483,361.614532 224.624924,361.152710 223.942993,360.369324 z"/>
  <path fill="#0A5D31" opacity="1.000000" stroke="none" d=" M222.625137,358.303345 C223.275009,358.486176 223.654800,358.954681 223.991119,359.744934 C223.416794,359.574188 222.885925,359.081604 222.625137,358.303345 z"/>
  <path fill="#0A5D31" opacity="1.000000" stroke="none" d=" M221.774567,357.420258 C222.211914,357.217285 222.512955,357.391846 222.887024,357.827881 C222.519440,357.992188 222.078842,357.894989 221.774567,357.420258 z"/>
  <path fill="#FF7065" opacity="1.000000" stroke="none" d=" M293.877136,321.023743 C284.313019,308.696442 277.967621,294.760071 276.070801,279.181519 C272.973907,253.746201 282.583832,231.994034 296.721069,211.746521 C298.903412,208.620941 301.416504,205.726288 304.226898,202.283478 C307.842621,198.285492 311.008087,194.728882 314.173553,191.172272 C314.173553,191.172272 314.152618,191.085266 314.432953,191.124588 C314.846527,190.801086 314.979736,190.438278 315.112976,190.075470 C315.112976,190.075470 315.016052,190.036209 315.375427,190.119202 C315.868378,189.832947 316.001892,189.463715 316.135437,189.094482 C316.135437,189.094482 316.031372,189.045151 316.394623,189.137894 C316.891724,188.859650 317.025574,188.488663 317.159424,188.117676 C317.159393,188.117676 317.043060,188.058472 317.415771,188.162140 C317.917969,187.889374 318.047485,187.512955 318.177032,187.136520 C318.177032,187.136520 318.081024,187.173141 318.428772,187.311707 C319.212952,186.982574 319.649353,186.514847 320.085724,186.047119 C320.085724,186.047119 320.021301,186.012894 320.298767,185.965027 C320.820831,185.616501 321.065369,185.315842 321.309906,185.015198 C370.880005,144.375519 429.270844,123.495514 490.809204,110.109306 C512.369995,105.419266 534.279541,102.186958 556.142395,99.081635 C570.871704,96.989525 585.791565,96.201569 600.639954,95.001022 C607.425537,94.452377 614.244324,94.315659 621.980347,94.012573 C635.282532,93.990135 647.652527,93.947258 660.022461,93.904373 C674.604736,94.607605 689.238037,94.761688 703.760437,96.110184 C763.152039,101.625061 821.533142,112.012466 877.436829,133.714554 C881.907104,135.449936 886.288269,137.414917 890.922974,139.550781 C882.927185,140.881042 874.718384,141.928024 866.511230,142.987564 C848.939148,145.256149 831.337463,147.320557 813.804565,149.860092 C794.469482,152.660690 775.128174,155.519363 755.915771,159.041107 C730.017090,163.788467 704.214233,169.072433 678.420654,174.371887 C667.064392,176.705109 655.832520,179.643768 644.251038,182.535172 C583.693726,164.343628 524.314697,143.421631 465.892639,119.793076 C464.435333,119.203682 462.958252,118.663162 460.659729,117.781067 C463.042877,125.792397 465.132782,133.019913 467.342590,140.210587 C475.647430,167.234451 480.766663,194.935608 484.953857,222.834396 C485.317627,225.258057 485.395294,227.724640 485.710632,230.562561 C464.639435,239.281998 443.154388,246.911804 422.364288,256.111969 C395.302643,268.087433 368.601196,280.925720 342.115875,294.136627 C325.765869,302.292053 310.106812,311.832642 293.877136,321.023743 z"/>
  <path fill="#517D55" opacity="1.000000" stroke="none" d=" M659.702637,93.638474 C647.652527,93.947258 635.282532,93.990135 622.444946,93.968468 C623.715454,93.607735 625.454468,93.052124 627.191650,93.057747 C637.922241,93.092422 648.652405,93.253494 659.702637,93.638474 z"/>
  <path fill="#2B6E44" opacity="1.000000" stroke="none" d=" M313.816589,191.126450 C311.008087,194.728882 307.842621,198.285492 304.371216,201.983261 C303.871704,201.830261 303.678162,201.536087 303.249512,201.115768 C306.496155,197.686615 309.977905,194.383621 313.816589,191.126450 z"/>
  <path fill="#2B6E44" opacity="1.000000" stroke="none" d=" M319.761719,186.042023 C319.649353,186.514847 319.212952,186.982574 318.463135,187.349899 C318.579071,186.845322 319.008392,186.441132 319.761719,186.042023 z"/>
  <path fill="#2B6E44" opacity="1.000000" stroke="none" d=" M317.907471,187.190948 C318.047485,187.512955 317.917969,187.889374 317.453552,188.215363 C317.291687,187.858383 317.464783,187.551865 317.907471,187.190948 z"/>
  <path fill="#2B6E44" opacity="1.000000" stroke="none" d=" M321.020264,185.093948 C321.065369,185.315842 320.820831,185.616501 320.295776,186.001389 C320.253754,185.781311 320.492218,185.477005 321.020264,185.093948 z"/>
  <path fill="#2B6E44" opacity="1.000000" stroke="none" d=" M314.852875,190.142944 C314.979736,190.438278 314.846527,190.801086 314.389099,191.133514 C314.240875,190.805573 314.416840,190.507996 314.852875,190.142944 z"/>
  <path fill="#2B6E44" opacity="1.000000" stroke="none" d=" M315.871460,189.156830 C316.001892,189.463715 315.868378,189.832947 315.406921,190.160950 C315.255157,189.819550 315.431305,189.519348 315.871460,189.156830 z"/>
  <path fill="#2B6E44" opacity="1.000000" stroke="none" d=" M316.892090,188.175308 C317.025574,188.488663 316.891724,188.859650 316.426697,189.185699 C316.271973,188.838150 316.448364,188.535553 316.892090,188.175308 z"/>
</svg>